# xmcd CD database file
#
# Track frame offsets:
#	150
#	21042
#	40620
#	54712
#	70092
#	84575
#	106982
#	128955
#	145440
#	163652
#
# Disc length: 2383 seconds
#
# Revision: 0
# Processed by: cddbd v1.5.2PL0 Copyright (c) Steve Scherf et al.
# Submitted via: CDex 1.51
#
DISCID=85094d0a
DTITLE=Joe Pass-Tommy Gumina Trio - Autumn Leaves
DYEAR=1991
DGENRE=Jazz
TTITLE0=The Way You Look Tonight
TTITLE1=Smile
TTITLE2=Autumn Leaves
TTITLE3=Teach Me Tonight
TTITLE4=I Love You
TTITLE5=Without A Song
TTITLE6=When I Fall In Love
TTITLE7=Polly Wants A Tonic
TTITLE8=Pretty Bayou
TTITLE9=Too Late Now
EXTD=YEAR: 1991
EXTT0=
EXTT1=
EXTT2=
EXTT3=
EXTT4=
EXTT5=
EXTT6=
EXTT7=
EXTT8=
EXTT9=
PLAYORDER=
